# xmcd
#
# Track frame offsets: 
#        150
#        20675
#        41593
#        60181
#        77150
#        97551
#        116548
#        139189
#        152969
#        170897
#        188190
#
# Disc length: 2894 seconds
#
# Revision: 0
# Processed by: cddbd v1.5.2PL0 Copyright (c) Steve Scherf et al.
# Submitted via: ExactAudioCopy v0.99pb3
#
DISCID=890b4c0b
DTITLE=Eric Sardinas And His Big Motor - Eric Sardinas And His Big Mot
DTITLE=or
DYEAR=2008
DGENRE=Blues
TTITLE0=All I Need
TTITLE1=Ride
TTITLE2=Find My Heart
TTITLE3=Gone To Memphis
TTITLE4=It's Nothin' New
TTITLE5=This Time
TTITLE6=Just Like That
TTITLE7=Burning Love
TTITLE8=Wonderin' Blues
TTITLE9=Door To Diamonds
TTITLE10=As The Crow Flies
EXTD=
EXTT0=
EXTT1=
EXTT2=
EXTT3=
EXTT4=
EXTT5=
EXTT6=
EXTT7=
EXTT8=
EXTT9=
EXTT10=
PLAYORDER=
